<?xml version="1.0" encoding="UTF-8" standalone="no"?>
<!-- Created with Inkscape (http://www.inkscape.org/) -->

<svg
   xmlns:dc="http://purl.org/dc/elements/1.1/"
   xmlns:cc="http://creativecommons.org/ns#"
   xmlns:rdf="http://www.w3.org/1999/02/22-rdf-syntax-ns#"
   xmlns:svg="http://www.w3.org/2000/svg"
   xmlns="http://www.w3.org/2000/svg"
   xmlns:sodipodi="http://sodipodi.sourceforge.net/DTD/sodipodi-0.dtd"
   xmlns:inkscape="http://www.inkscape.org/namespaces/inkscape"
   width="744.09448819"
   height="1052.3622047"
   id="svg2"
   version="1.1"
   inkscape:version="0.48.3.1 r9886"
   sodipodi:docname="banner.svg"
   inkscape:export-filename="/home/marios/workspace/triton-fpr/res/logo/bitmap/logo_300dpi.png"
   inkscape:export-xdpi="300"
   inkscape:export-ydpi="300">
  <defs
     id="defs4" />
  <sodipodi:namedview
     id="base"
     pagecolor="#ffffff"
     bordercolor="#666666"
     borderopacity="1.0"
     inkscape:pageopacity="0.0"
     inkscape:pageshadow="2"
     inkscape:zoom="1.1291611"
     inkscape:cx="229.60448"
     inkscape:cy="692.28138"
     inkscape:document-units="px"
     inkscape:current-layer="text2985"
     showgrid="false"
     inkscape:window-width="1366"
     inkscape:window-height="722"
     inkscape:window-x="0"
     inkscape:window-y="24"
     inkscape:window-maximized="1" />
  <metadata
     id="metadata7">
    <rdf:RDF>
      <cc:Work
         rdf:about="">
        <dc:format>image/svg+xml</dc:format>
        <dc:type
           rdf:resource="http://purl.org/dc/dcmitype/StillImage" />
        <dc:title></dc:title>
      </cc:Work>
    </rdf:RDF>
  </metadata>
  <g
     inkscape:label="Layer 1"
     inkscape:groupmode="layer"
     id="layer1">
    <g
       style="font-size:40px;font-style:normal;font-variant:normal;font-weight:normal;font-stretch:normal;line-height:125%;letter-spacing:0px;word-spacing:0px;fill:#000000;fill-opacity:1;stroke:none;font-family:PlainBlack;-inkscape-font-specification:PlainBlack"
       id="text2985">
      <path
         d="m 170.7506,387.08044 0,6.125 -11.42804,0 0,11.70313 c -3e-5,2.3698 0.0992,3.75522 0.29761,4.15625 0.23804,0.38282 0.73404,0.70183 1.48801,0.95703 0.79358,0.25521 1.74593,0.38282 2.85701,0.38281 1.54752,1e-5 3.78947,-0.24608 6.72587,-0.73828 l 1.4285,5.96094 c -3.88872,0.76562 -8.29329,1.14844 -13.21367,1.14844 -3.01576,0 -5.73386,-0.22787 -8.15437,-0.6836 -2.42054,-0.47395 -4.20617,-1.07552 -5.3569,-1.80468 -1.11107,-0.7474 -1.88485,-1.75 -2.32133,-3.00782 -0.35712,-0.89322 -0.53568,-2.69791 -0.53568,-5.41406 l 0,-12.66016 -7.67821,0 0,-6.125 7.67821,0 0,-5.76953 16.78495,-4.48437 0,10.2539 11.42804,0"
         style="font-size:56px;font-weight:bold;fill:#00ccff;stroke:none;font-family:Arial;-inkscape-font-specification:Arial Bold"
         id="path2990"
         inkscape:connector-curvature="0" />
      <path
         d="m 189.91969,416.11951 -16.72541,0 0,-29.03907 15.53499,0 0,4.12891 c 2.65859,-1.95049 5.03943,-3.23565 7.14254,-3.85547 2.14273,-0.61976 4.56325,-0.92966 7.26158,-0.92969 3.8093,3e-5 7.47974,0.48311 11.01138,1.44922 l -5.17833,6.69922 c -2.81737,-0.83852 -5.4363,-1.25779 -7.85678,-1.25781 -2.34121,2e-5 -4.32522,0.3008 -5.95212,0.90234 -1.62691,0.58336 -2.91653,1.64976 -3.86885,3.19922 -0.91269,1.5495 -1.36902,4.79429 -1.369,9.73438 l 0,8.96875"
         style="font-size:56px;font-weight:bold;fill:#00ccff;font-family:Arial;-inkscape-font-specification:Arial Bold"
         id="path2992"
         inkscape:connector-curvature="0" />
      <path
         d="m 218.43139,415.8064 0,-29.03907 16.72542,0 0,29.03907 -16.72542,0"
         style="font-size:56px;font-weight:bold;fill:#0088aa;font-family:Arial;-inkscape-font-specification:Arial Bold"
         id="path2994"
         inkscape:connector-curvature="0"
         sodipodi:nodetypes="ccccc" />
      <path
         d="m 258.78027,387.08044 0,6.125 -5.88917,0 0,11.70313 c -1e-5,2.3698 0.0512,3.75522 0.15336,4.15625 0.12268,0.38282 0.37828,0.70183 0.76682,0.95703 0.40896,0.25521 0.89973,0.38282 1.4723,0.38281 0.79747,1e-5 1.95281,-0.24608 3.46601,-0.73828 l 0.73615,5.96094 c -2.00397,0.76562 -4.27375,1.14844 -6.80935,1.14844 -1.55411,0 -2.95482,-0.22787 -4.20217,-0.6836 -1.24737,-0.47395 -2.16755,-1.07552 -2.76055,-1.80468 -0.57257,-0.7474 -0.97131,-1.75 -1.19625,-3.00782 -0.18403,-0.89322 -0.27605,-2.69791 -0.27605,-5.41406 l 0,-12.66016 -3.95678,0 0,-6.125 3.95678,0 0,-5.76953 8.64973,-4.48437 0,10.2539 5.88917,0"
         style="font-size:56px;font-weight:bold;fill:#00ccff;font-family:Arial;-inkscape-font-specification:Arial Bold"
         id="path2996"
         inkscape:connector-curvature="0" />
      <path
         d="m 258.41391,401.18982 c 0,-2.55207 0.70548,-5.02212 2.11642,-7.41016 1.41095,-2.38799 3.40468,-4.21091 5.9812,-5.46875 2.59694,-1.25778 5.49041,-1.88669 8.68039,-1.88672 4.92808,3e-5 8.96666,1.43102 12.11575,4.29297 3.14905,2.84378 4.72358,6.44403 4.72362,10.80078 -4e-5,4.39324 -1.59502,8.03907 -4.78496,10.9375 -3.16955,2.88021 -7.16723,4.32032 -11.99306,4.32032 -2.9855,0 -5.83807,-0.60157 -8.55771,-1.80469 -2.6992,-1.20312 -4.75428,-2.96224 -6.16523,-5.27734 -1.41094,-2.33333 -2.11642,-5.16796 -2.11642,-8.50391 m 8.83376,0.41016 c -1e-5,2.88022 0.76682,5.08594 2.30046,6.61718 1.53363,1.53126 3.42511,2.29688 5.67447,2.29688 2.24932,0 4.13058,-0.76562 5.6438,-2.29688 1.53361,-1.53124 2.30042,-3.75519 2.30045,-6.67187 -3e-5,-2.84373 -0.76684,-5.03123 -2.30045,-6.5625 -1.51322,-1.53123 -3.39448,-2.29685 -5.6438,-2.29688 -2.24936,3e-5 -4.14084,0.76565 -5.67447,2.29688 -1.53364,1.53127 -2.30047,3.73699 -2.30046,6.61719"
         style="font-size:56px;font-weight:bold;fill:#00ccff;font-family:Arial;-inkscape-font-specification:Arial Bold"
         id="path2998"
         inkscape:connector-curvature="0" />
      <path
         d="m 324.02471,416.11951 -8.61905,0 0,-14.82032 c -2e-5,-3.13539 -0.18407,-5.15883 -0.55211,-6.07031 -0.36809,-0.92966 -0.97132,-1.64972 -1.80969,-2.16015 -0.81797,-0.5104 -1.80972,-0.76561 -2.97526,-0.76563 -1.49277,2e-5 -2.83215,0.36461 -4.01813,1.09375 -1.18604,0.72919 -2.00397,1.69533 -2.45383,2.89844 -0.42943,1.20314 -0.64414,3.4271 -0.64413,6.67187 l 0,13.15235 -8.61905,0 0,-29.03907 8.0056,0 0,4.26563 c 2.84232,-3.28122 6.42081,-4.92185 10.73547,-4.92188 1.90168,3e-5 3.63981,0.30993 5.21437,0.92969 1.57451,0.60159 2.76052,1.37633 3.55805,2.32422 0.8179,0.94794 1.38024,2.02346 1.68699,3.22656 0.32715,1.20315 0.49073,2.9258 0.49077,5.16797 l 0,18.04688"
         style="font-size:56px;font-weight:bold;fill:#00ccff;font-family:Arial;-inkscape-font-specification:Arial Bold"
         id="path3000"
         inkscape:connector-curvature="0" />
      <path
         sodipodi:type="arc"
         style="fill:#0088aa;stroke:none"
         id="path3770"
         sodipodi:cx="223.56165"
         sodipodi:cy="378.23303"
         sodipodi:rx="7.8277888"
         sodipodi:ry="7.8277888"
         d="m 231.38943,378.23303 a 7.8277888,7.8277888 0 1 1 -15.65557,0 7.8277888,7.8277888 0 1 1 15.65557,0 z"
         transform="translate(3.1428571,-2.1917808)" />
    </g>
  </g>
</svg>
